# xmcd
#
# Track frame offsets:
#	150
#	12072
#	24545
#	36640
#	50160
#	64867
#	77165
#	89702
#	101780
#	115865
#	130412
#	143435
#	157685
#	171410
#	186412
#	200037
#	211932
#	226270
#	241220
#	256520
#	268655
#	280175
#	292825
#	308335
#	323815
#	335397
#
# Disc length: 4666 seconds
#
# Revision: 1
# Processed by: cddbd v1.4PL0 Copyright (c) Steve Scherf et al.
# Submitted via: audiograbber 1.80
#
DISCID=7212381a
DTITLE=tex ritter - blood on the saddle disc 3
DYEAR=1900
DGENRE=
TTITLE0=san antonio rose 1945
TTITLE1=try me one more time 1945
TTITLE2=green grow the lilacs 1999
TTITLE3=boll weevil 1945
TTITLE4=rounded up in glory 1945
TTITLE5=you two timed me one time too often 1945
TTITLE6=blood on the saddle 1945
TTITLE7=the chisholm trail 1945
TTITLE8=bad brahma bull 1945
TTITLE9=rye whiskey 1945
TTITLE10=billy the kid 1945
TTITLE11=the texas rangers 1945
TTITLE12=i love my rooster 1945
TTITLE13=the wreck of number nine 1999
TTITLE14=froggy went a-courtin' 1945
TTITLE15=green grow the lilacs 1945
TTITLE16=night herding song 1945
TTITLE17=the pony express 1999
TTITLE18=the phantom white stallion of skull valley 1945
TTITLE19=some sweet day 1945
TTITLE20=christmas carols by the old corral 1945
TTITLE21=love me now 1945
TTITLE22=the wreck of number nine 1945
TTITLE23=the pony express 1999
TTITLE24=teach me to forget 1946
TTITLE25=the pony express 1946
EXTD=
EXTT0=
EXTT1=
EXTT2=
EXTT3=
EXTT4=
EXTT5=
EXTT6=
EXTT7=
EXTT8=
EXTT9=
EXTT10=
EXTT11=
EXTT12=
EXTT13=
EXTT14=
EXTT15=
EXTT16=
EXTT17=
EXTT18=
EXTT19=
EXTT20=
EXTT21=
EXTT22=
EXTT23=
EXTT24=
EXTT25=
PLAYORDER=
